<?xml version="1.0" encoding="UTF-8" standalone="no"?>
<svg
   width="58.5"
   height="134.13297"
   version="1.1"
   id="svg1"
   xmlns="http://www.w3.org/2000/svg"
   xmlns:svg="http://www.w3.org/2000/svg">
  <defs
     id="defs1" />
  <rect
     style="fill:#011b28;fill-opacity:1;stroke:none;stroke-width:77.7;stroke-linecap:round;stroke-linejoin:round;stroke-miterlimit:39.4;stroke-opacity:0.8"
     id="rect2"
     width="61.833172"
     height="141.54842"
     x="-1.939019"
     y="-1.0772331" />
  <rect
     x="0.25"
     y="16.950981"
     width="100%"
     height="100%"
     fill="#2a2a31"
     fill-opacity="1"
     id="rect1"
     style="display:none" />
  <path
     d="m 12.377,90.763981 0.013,5.643 4.893,-2.81 z m -6.01,-3.47 16.928,9.773 -16.93,9.776999 z m -6.02,-3.476 28.967,16.724999 -28.934,16.67 z m 16.97,23.615999 -0.015,5.643 -4.893,-2.81 z m 6.01,-3.472 -16.929,9.775 16.93,9.776 z m -22.949,13.25 28.935,16.669 m 16.874,-23.67 -0.013,-5.644 -4.894,2.81 z m 6.01,3.47 -16.927,-9.774 16.931,-9.774999 z m -22.947,-13.248 28.936,-16.668999 0.032,33.392999 m -28.904,2.834 4.881,-2.834 -4.88,-2.832 z m 0,6.94 v -19.547 l 16.932,9.773 z m 0,6.952 v -33.45 l 28.904,16.724 z M 58.25,30.865981 l -4.882,2.833 4.882,2.834 z m 0,-6.94 v 19.548 l -16.932,-9.774 z m 0,-6.951 v 33.448 l -28.904,-16.724 m 0,-13.89 4.88,-2.833 -4.88,-2.833 z m 0,6.94 V 7.2019811 l 16.93,9.7739999 z m 0,6.95 V 0.24998114 L 58.25,16.974981 Z m -12.156,6.948 -4.894,-2.81 -0.014,5.643 z m 6.01,-3.47 -16.93,9.772 v -19.55 z m -22.95,13.246 0.033,-33.392 28.937,16.67 M 23.23,3.7809811 6.303,13.557981 l 16.93,9.776 z M 29.22,33.700981 29.25,0.30698114 0.283,17.030981 m 40.966,23.615 0.013,5.643 4.893,-2.81 z m -6.01,-3.47 16.928,9.774 -16.93,9.775 z m 22.947,13.248 -28.936,16.67 -0.031,-33.394 m -11.999,26.448 -0.013,-5.643 -4.894,2.81 z m 6.01,3.47 -16.927,-9.773 16.93,-9.776 z m 6.02,3.476 -28.968,-16.724 28.936,-16.67 m 16.937,57.008 -4.893,-2.81 -0.014,5.644 z m 6.01,-3.47 -16.927,9.773 v -19.55 z m -22.915,-6.252 -4.88,2.832 4.88,2.833 z m 0,-6.942 v 19.549 l -16.93,-9.775 z m -28.903,9.774 28.903,-16.724 v 33.448999 m 16.938,-43.227999 -0.013,5.644 -4.894,-2.811 z m 6.01,-3.47 -16.928,9.773 16.931,9.777 z m -22.948,13.249 28.936,16.67 0.032,-33.394 m -57.871,19.556 4.88,-2.832 -4.88,-2.833 z m 0,6.942 v -19.549 l 16.931,9.775 z m 0,6.95 v -33.447"
     stroke-linejoin="round"
     stroke-linecap="round"
     stroke-width="0.5"
     stroke="hsl(0,0%,42%)"
     stroke-opacity="1.00"
     fill="none"
     id="path1"
     style="display:inline;stroke:#666666;stroke-opacity:0.08" />
</svg>
