<?xml version="1.0" encoding="UTF-8" standalone="no"?>

<svg
   width="766.11169"
   height="803.19873"
   viewBox="0 0 766.11169 803.19873"
   version="1.1"
   xml:space="preserve"
   xmlns:xlink="http://www.w3.org/1999/xlink"
   xmlns="http://www.w3.org/2000/svg"
   xmlns:svg="http://www.w3.org/2000/svg"><defs
     id="defs1"><linearGradient
       id="linearGradient29"><stop
         style="stop-color:#cfff00;stop-opacity:1;"
         offset="0"
         id="stop29" /><stop
         style="stop-color:#ff0018;stop-opacity:1;"
         offset="1"
         id="stop30" /></linearGradient><linearGradient
       xlink:href="#linearGradient29"
       id="linearGradient30"
       x1="186.67619"
       y1="84.852814"
       x2="1077.6307"
       y2="907.92511"
       gradientUnits="userSpaceOnUse" /></defs><g
     transform="translate(-141.12508,-118.90866)"><path
       style="display:inline;fill:url(#linearGradient30);fill-opacity:1;stroke:#000000;stroke-width:15;stroke-linecap:round;stroke-linejoin:round;stroke-miterlimit:39.4;stroke-dasharray:none;paint-order:normal"
       d="m 157.68481,531.7443 c 43.84062,40.30508 36.51955,5.26224 45.00484,42.7389 m -0.49917,-0.48507 c 0,0 -15.0923,12.76075 -35.5984,9.93232 0,0 -6.828,7.5793 4.83926,19.95367 v -0.35356 c 0,0 -37.43247,-12.41855 -16.57282,-71.10842 0,0 -13.83277,-44.50353 67.48451,-67.4845 0.35355,-0.35356 -8.33061,-5.59057 118.24151,0.41984 0,0 12.82315,-35.69001 5.82315,-116.69001 -0.5,-0.5 -11.75,-26 71.25,-88.5 0,0 140.85937,-111.04687 211.35937,-133.04687 0,0 -3.60937,25.54687 -23.60937,46.54687 0.5,0.5 55.5,-22.5 68,-22 -0.5,0.5 4,13.5 -22.5,27.5 -0.5,0.5 3,15.5 -26,30.5 -0.5,1 15.84597,1.77903 6.84597,18.77903 0,0 241.15403,-104.77903 253.65403,-101.77903 0,0 -0.39775,6.73483 -17.89775,25.73483 0,0 25.08839,-8.13258 30.58839,-5.13258 0,0 1.5,6.22097 -18.5,18.72097 0,0 10.61872,-2.32322 14.61872,0.67678 0,0 -15.80936,20 -56.80936,36.5 0,0 21.60937,-3.5 19.10937,3 0,0 -1.10937,14 -38.60937,32 0,0 6.6875,7.5 4.1875,10.5 0,0 3.8125,3 -31.6875,26 0,0 -8.125,18.75 -32.125,27.75 0,0 10.25,9.75 -32.75,31.25 0,0 10.0625,14.375 -27.9375,28.375 0,0 6.26831,16.44822 -27.73169,28.94822 0,0 8,10.5 -13,17.5 0,0 0.35355,10.17678 -11.14645,14.67678 0,0 -4.30936,9 -1.80936,16 0,0 -3.17678,6.04419 -9.17678,7.54419 0,0 8.83146,12.5221 -6.16854,26.5221 0,0 12.41578,17.12213 11.41578,28.62213 0,0 -3.73896,10.43721 2.85724,21.09927 0,0 -1.81679,8.64797 -8.56679,15.89797 0,0 8.76409,14.50184 1.01409,19.00184 0,0 9.46875,16.34375 -7.28125,17.34375 0,0 7.90625,10.53125 4.65625,12.53125 0,0 -0.59375,9.21875 -30.09375,4.46875 0,0 -2.25,8 -9.75,9 0,0 -20.19476,1.22065 -22.19476,-4.02935 0,0 84.77288,86.92779 88.52288,94.42779 0,0 59.04688,68.71875 62.29688,69.71875 0,0 87.67187,74.53906 91.42187,76.78906 l 86.95837,68.68238 -86.96982,-68.68923 c 0,0 69.36538,67.56434 69.36538,74.63541 0,0 -3.76501,2.18919 -11.18963,1.83563 0,0 -159.36419,-137.2671 -167.49592,-136.20644 0,0 44.54773,64.52349 95.10586,104.47502 0,0 -11.31371,2.82843 -31.1127,-17.67767 0,0 -92.4763,-83.88054 -91.06209,-86.00186 0,0 19.46753,41.36575 62.24749,83.79215 0,0 -12.21491,5.65946 -24.94283,-8.48267 L 611.95886,742.47705 c 0,0 42.18223,101.46982 44.6571,113.49064 0,0 -3.66635,13.91358 -21.69757,-15.0778 0,0 -31.88047,-55.27933 -36.83022,-63.0575 0,0 3.99264,33.50546 11.77082,58.96131 0,0 -11.6066,2.45342 -26.10229,-24.06308 L 557.51164,753.4372 c 0,0 -0.35355,26.16295 -7.07107,37.47666 0.70711,0 -8.88173,6.34252 -19.13477,-23.35597 0,0 -15.57412,-47.2726 -13.09925,-64.59672 0,0 -62.10949,3.76279 -159.69023,-55.63417 0,0 -54.50246,-41.67512 -79.2512,-52.98882 0,0 -36.97666,-12.45832 -43.34062,-12.45832 0,0 -21.92306,-0.39989 -22.42306,-2.39989 0,0 -10.77817,-1.46367 -11.31096,-5.48184 z m 258.84314,-54.98175 c 0,0 59.02197,7.61028 78.82096,35.89455 0,0 4.97056,20.3382 30.42641,41.5514 M 414.19196,474.87458 c 0,0 27.57964,-24.26164 41.76714,-52.98039 14.1875,-28.71875 14.98286,-61.89461 17.98286,-76.89461 0,0 25.96573,-65.83211 97.96573,-87.83211 1,0 60.75,-28.9375 60.75,-28.9375" /><path
       style="display:inline;fill:#ff6600;fill-opacity:1;stroke:none;stroke-width:10;stroke-linecap:round;stroke-linejoin:round;stroke-miterlimit:39.4;stroke-dasharray:none;paint-order:normal"
       d="m 156.96118,580.95976 c -3.08414,-7.85674 -3.36066,-23.44969 -0.60644,-34.1976 l 1.85474,-7.23784 5.14526,4.3652 c 7.68847,6.52285 16.33932,11.71273 23.59933,14.15787 l 6.47921,2.18217 1.35916,5.36463 c 1.30043,5.13284 1.26519,5.44072 -0.81552,7.12558 -3.66522,2.96791 -14.57699,5.78023 -22.42727,5.78023 -7.73906,0 -9.47234,0.91353 -11.34667,5.98032 -0.83609,2.26017 -1.07403,2.00177 -3.2418,-3.52056 z"/></g></svg>
